# xmcd
#
# Track frame offsets:
#	150
#	12377
#	22905
#	31650
#	43672
#	50662
#	59415
#	70220
#	81465
#	92172
#
# Disc length: 1355 seconds
#
# Revision: 2
# Processed by: cddbd v1.5.1PL0 Copyright (c) Steve Scherf et al.
# Submitted via: MusicManager 7.2.0.0 
#
DISCID=7f05490a
DTITLE=Waylon Jennings - White Lightning
DYEAR=2000
DGENRE=
TTITLE0=Don't Think Twice, It's All Right
TTITLE1=White Lightning
TTITLE2=Abilene
TTITLE3=Crying
TTITLE4=It's So Easy
TTITLE5=Love's Gonna Live Here
TTITLE6=Burning Memories
TTITLE7=Big Mamou
TTITLE8=Money
TTITLE9=When Sin Stops Love Begins
EXTD=
EXTT0=
EXTT1=
EXTT2=
EXTT3=
EXTT4=
EXTT5=
EXTT6=
EXTT7=
EXTT8=
EXTT9=
PLAYORDER=
